<svg version="1.1" xmlns="http://www.w3.org/2000/svg" style="display: block" viewBox="0 0 2048 2007" width="650" height="637" preserveAspectRatio="xMidYMid meet">

<path transform="translate(0,0)" fill="#7b8572" d="M 706.432 993.641 C 652.67 980.956 578.882 926.161 596.621 862.25 C 607.284 823.83 627.097 787.731 642.812 751.167 C 679.669 665.53 697.965 595.956 786.048 545.816 C 871.088 497.409 973.397 458.75 1073.25 477.744 C 1127.66 488.093 1146.37 522.182 1179.53 539.216 C 1205.3 552.452 1297.87 519.489 1325.94 513.39 C 1356.45 508.289 1438.33 467.452 1457.5 508.137 C 1480.01 555.921 1482.45 627.861 1468.47 678.575 C 1430.25 817.136 1264.54 814.966 1238.11 964.98 C 1208.22 1134.55 1300.69 1279.51 1305.74 1446.74 C 1309.87 1570.06 1282.4 1670.58 1250.1 1786.6 C 1284.82 1776.75 1319.5 1766.93 1354.9 1759.82 C 1526.36 1725.42 1709.92 1734.15 1865.21 1820.79 C 1883.05 1830.74 1961.58 1880.92 1965.56 1896.51 C 1966 1898.22 1965.63 1898.66 1965.14 1900.27 L 1962.89 1901.64 C 1954.79 1899.19 1943.29 1892.97 1935.25 1889.14 C 1924.8 1884.27 1914.24 1879.64 1903.58 1875.25 C 1863.64 1858.54 1822.56 1844.72 1780.64 1833.9 C 1620.63 1792.53 1470.6 1799.77 1311.51 1840.16 C 1284.52 1847.02 1256.56 1854.08 1230.02 1862.53 C 1176.36 1879.87 1122.85 1897.71 1069.52 1916.03 C 951.134 1955.88 844.016 1984.25 719.201 1998.32 C 698.314 2000.59 677.374 2002.35 656.401 2003.59 C 645.212 2004.2 619.419 2004.77 609.841 2007 L 495.134 2007 C 484.141 2004.71 464.834 2004.36 453.107 2003.73 C 436.644 2002.77 420.195 2001.58 403.765 2000.17 C 340.992 1995.44 278.536 1987.18 216.693 1975.42 C 198.597 1971.96 171.101 1966.95 154.099 1961.73 C 195.38 1758.49 329.396 1582.54 467.848 1434.21 C 534.07 1363.27 601.528 1287.68 646.944 1201.3 C 681.259 1134.59 694.499 1066.84 706.432 993.641 z"/>
<path fill-rule="evenodd" transform="translate(0,0)" fill="#7b8572" d="M 0 0 L 1013.23 0 L 1038.48 0 C 1056.74 3.86998 1088.14 3.35251 1107.99 5.1087 C 1152.68 8.88826 1197.08 15.5888 1240.89 25.1675 C 1494.17 81.8177 1716.3 232.919 1862.03 447.674 C 2115.36 817.495 2104.46 1306.9 1841.75 1668.11 C 1826.95 1688.45 1809.87 1711.42 1792.95 1730.07 C 1768.78 1717.71 1736.02 1709.17 1709.62 1702.32 C 1879.77 1512.59 1976.16 1250.41 1962.35 995.316 C 1950.76 739.271 1836.97 498.571 1646.46 327.11 C 1463.31 160.286 1220.51 74.5734 973.213 89.4474 C 718.775 103.52 493.207 215.905 323.82 405.397 C 155.357 595.644 69.0704 844.851 83.8238 1098.54 C 92.1492 1252.15 136.319 1401.68 212.797 1535.15 C 225.968 1557.73 238.004 1578.06 253.7 1599.07 C 239.752 1620.81 218.339 1652.88 207.297 1675.28 C 199.593 1663.59 190.919 1652.37 182.94 1640.82 C 97.7844 1517.51 46.449 1386.22 17.8775 1239.32 C 12.5506 1210.73 8.41901 1181.93 5.49359 1153 C 4.32096 1140.52 2.70893 1105.31 0 1095.54 L 0 988.509 L 0 0 z M 0 0 L 1013.23 0 C 995.879 3.58864 968.354 2.81944 949.633 4.44155 C 905.019 8.24159 860.665 14.6431 816.798 23.6134 C 558.706 79.2511 331.908 232.041 183.391 450.329 C 100.238 570.484 43.7077 707.013 17.5818 850.78 C 12.5712 879.248 8.61781 904.136 5.70685 932.982 C 4.2999 946.924 2.96015 977.055 0 988.509 L 0 0 z"/>

</svg>