<svg xmlns="http://www.w3.org/2000/svg" viewBox="0 0 1917 2048"><mask id="branda-cut-ri0pttvw" maskUnits="userSpaceOnUse" x="0" y="0" width="1917" height="2048"><rect x="0" y="0" width="1917" height="2048" fill="black"/>

<path transform="translate(0,0)" fill="#FFFFFF" d="M 894.945 0 L 1057.92 0 C 1060.69 3.90565 1061.57 9.2821 1063.25 11.0806 C 1090.79 12.9642 1129.97 20.1346 1156.84 26.0776 C 1290.79 55.2529 1415.47 116.993 1519.87 205.834 C 1690.94 351.31 1796.82 559.087 1813.98 782.991 C 1824.78 938.844 1792.52 1094.67 1720.74 1233.42 C 1709.81 1254.56 1689.09 1293.37 1673.54 1311.35 C 1725.9 1339.09 1776.75 1371.15 1818.08 1414.08 C 1820.86 1416.96 1828.58 1425.64 1823.71 1429.07 C 1818.72 1427.67 1802.87 1417.51 1796.6 1414.13 C 1783.85 1407.29 1770.89 1400.87 1757.73 1394.88 C 1683.16 1360.5 1614.02 1338.86 1532.44 1328.6 C 1368.87 1308.05 1216.58 1360.32 1064.43 1412.84 C 821.346 1496.75 554.735 1525.41 301.263 1474.18 C 316.458 1369.37 407.697 1265.69 477.799 1191.35 C 543.963 1121.17 592.627 1074.59 601.514 973.287 C 586.326 956.158 560.232 940.408 553.922 918.507 C 549.135 901.892 564.102 872.018 570.68 856.171 C 578.989 836.152 587.352 812.775 598.004 793.98 C 622.439 750.867 675.365 725.66 721.477 712.959 C 750.411 705.787 786.803 702.554 812.464 720.849 C 822.282 727.848 831.07 737.468 841.371 743.085 C 884.586 745.009 924.055 717.517 966.387 717.308 C 969.777 717.291 976.651 723.911 977.79 727.026 C 1003.54 800.565 979.308 846.049 917.13 886.2 C 829.419 943.803 893.825 1076.66 907.254 1157.85 C 923.783 1257.77 896.417 1323.36 871.375 1417.33 C 907.259 1407.71 938.288 1401.92 975.5 1390.67 C 1016.26 1377.94 1056.87 1364.76 1097.33 1351.13 C 1141.88 1335.64 1185.83 1318.05 1231.88 1307.5 C 1243.59 1304.82 1256.96 1301.61 1268.23 1297.69 C 1270.41 1281.32 1268.7 1227.58 1268.38 1208.89 C 1251.63 1210.46 1233.98 1212.58 1217.14 1212.44 C 1208.12 1212.37 1203.4 1210.38 1196.98 1204.29 C 1225.43 1168.03 1237.57 1148.35 1256.35 1105.69 C 1247.97 1106 1221.32 1108.02 1215.76 1104.48 C 1214.23 1095.08 1239.31 1062.9 1246.11 1049.47 C 1253.81 1034.41 1260.05 1018.65 1264.75 1002.4 C 1257.9 1002.27 1237.12 1002.95 1233.17 998.32 C 1232.98 991.982 1244.86 977.564 1248.23 970.92 C 1257.34 953.537 1263.88 935.827 1269.23 917.015 C 1271.48 909.1 1277.4 870.447 1283.23 867.834 C 1285.32 868.531 1288.33 870.294 1288.96 872.426 C 1298.9 906.292 1305.02 939.931 1323.82 970.949 C 1326.76 975.805 1339.55 995.76 1338.71 999.765 C 1333.13 1003.06 1314.52 1002.12 1307.17 1002.12 C 1317.25 1036.07 1333.07 1063.12 1353 1091.75 C 1354.83 1094.38 1356.16 1098.52 1355.17 1101.73 C 1348.88 1104.81 1323.29 1104.85 1314.66 1105.15 C 1322.79 1124.31 1332.94 1143.84 1343.62 1161.74 C 1351.48 1174.9 1362.05 1186.99 1367.81 1201.14 C 1367.63 1202.91 1367.88 1204.73 1366.73 1205.3 C 1354.45 1211.35 1317.84 1209.26 1304.18 1209.05 C 1303.71 1233.93 1304.69 1262.38 1304.85 1287.57 C 1311.3 1286.77 1318.19 1285.64 1324.62 1284.51 C 1374.62 1275.74 1423.42 1273.32 1474.11 1272.79 L 1475.92 1187.09 C 1451.01 1187.46 1414.62 1188.27 1389.62 1182.72 C 1386.75 1182.08 1386.07 1180.22 1385.13 1178.14 C 1385.27 1171.46 1390.24 1167.52 1394.57 1162.89 C 1423.25 1132.26 1439.55 1094 1455.73 1056.16 C 1437.59 1058.06 1410.02 1059.14 1393.38 1052.13 C 1399.72 1041.14 1411.27 1027.76 1418.89 1016.89 C 1438.69 988.601 1450.07 963.469 1460.37 930.739 C 1450.69 930.965 1416.4 933.27 1410.96 926.616 C 1409.42 917.019 1420.25 906.25 1425.56 898.852 C 1431.67 890.403 1437.3 881.619 1442.43 872.543 C 1456.85 846.952 1463.79 826.897 1472.99 799.395 C 1460.01 798.802 1443.74 798.723 1431.37 795.371 C 1425.59 792.038 1438.71 773.653 1440.3 771.264 C 1464.81 734.34 1477.09 690.639 1485.67 647.591 C 1488.53 633.281 1489.67 623.316 1497.76 610.563 C 1503.22 625.583 1505.38 640.024 1508.99 655.538 C 1513.64 675.797 1519.8 695.68 1527.42 715.019 C 1533.91 731.095 1541.33 746.776 1549.65 761.981 C 1552.63 767.378 1567.23 788.687 1563.75 791.997 C 1559.5 796.032 1528.29 796.684 1522.88 796.96 C 1530.25 825.712 1545.72 856.79 1562.02 881.741 C 1571.91 896.881 1583.53 907.265 1589.23 924.703 C 1572.83 928.658 1552.89 928.425 1535.9 928.789 C 1544.2 954.188 1560.38 985.973 1575.9 1007.75 C 1586.51 1022.65 1596.9 1033.99 1606.66 1050.21 C 1586.09 1057.04 1563.71 1056.06 1542.36 1055.35 C 1562.23 1099.19 1583.74 1143.07 1619.27 1177 C 1583.38 1188.93 1555.4 1188.23 1518.47 1187.69 C 1517.25 1211.79 1518.67 1252.25 1520.1 1276.64 C 1553.6 1278.44 1592.08 1287.61 1624.08 1297.86 C 1650.28 1265.45 1665.87 1232.48 1683.98 1195.66 C 1733.91 1094.11 1761.73 983.467 1765.08 869.978 C 1772.13 659.811 1694.41 455.631 1549.39 303.349 C 1249.78 -13.6488 754.1 -21.6898 439.641 265.783 C 434.415 270.56 429.052 275.013 423.885 279.912 C 275.644 421.207 189.277 615.381 183.618 820.095 C 178.905 963.822 213.188 1106.14 282.829 1231.96 C 291.059 1246.8 315.152 1288.55 326.155 1300.15 C 316.166 1313.67 305.707 1333.49 295.786 1344.73 C 262.02 1299.1 233.471 1249.84 210.672 1197.86 C 77.1907 900.636 115.286 561.62 327.134 310.47 C 428.064 189.318 560.918 98.8663 710.634 49.3714 C 763.119 31.644 830.961 15.7978 886.471 11.1275 L 887.959 10.0321 C 890.395 4.27658 890.207 4.34438 894.945 0 z"/>
<path transform="translate(0,0)" fill="#000000" d="M 894.945 0 L 1057.92 0 C 1060.69 3.90565 1061.57 9.2821 1063.25 11.0806 C 1049 11.8082 1013.18 9.16379 996.996 8.84294 C 960.139 8.30909 923.275 9.0711 886.471 11.1275 L 887.959 10.0321 C 890.395 4.27658 890.207 4.34438 894.945 0 z"/>
<path transform="translate(0,0)" fill="#FFFFFF" d="M 768.403 398.823 C 777.908 397.126 837.582 460.822 848.233 470.7 C 877.163 497.53 906.573 534.585 938.654 557.805 C 1022.95 526.054 1006.21 505.271 1081.31 576.959 L 1137.49 630.676 C 1169.12 661.162 1201.13 689.659 1230.56 722.461 C 1244.32 737.804 1258.11 746.859 1268.55 765.611 C 1248.93 756.593 1235.17 743.367 1217.5 732.166 C 1146.47 687.135 1084.48 626.665 1014.35 581.014 C 987.013 592.965 955.551 614.607 932.399 633.605 C 921.279 621.2 905.378 605.831 893.493 593.688 L 824.073 522.744 C 804.362 502.804 786.117 485.067 768.475 463.175 C 756.201 473.921 744.389 485.59 732.641 496.939 C 716.562 512.686 700.285 528.23 683.815 543.568 C 675.256 551.655 660.896 564.447 654.188 573.551 C 662.902 593.498 682.895 628.279 693.782 648.334 C 665.253 634.943 635.001 616.17 608.409 599.354 C 594.898 590.81 578.568 581.028 565.841 571.942 C 525.85 603.244 484.529 634.842 443.012 664.016 C 428.834 673.98 407.257 679.678 391.545 689.533 C 354.711 712.636 318.404 736.775 280.155 757.488 C 272.356 761.666 265.189 767.784 257.02 771.15 L 255.465 770.493 C 254.687 768.618 254.339 768.094 254.961 766.053 C 259.32 751.748 372.857 654.942 390.607 642.704 C 407.936 630.757 428.621 625.133 445.277 611.945 C 455.08 604.183 464.104 595.235 473.414 586.873 L 513.803 551.302 C 564.729 506.182 558.54 514.351 619.285 534.28 C 631.655 526.583 648.14 509.496 659.021 498.782 C 680.225 477.686 701.752 456.917 723.595 436.482 C 735.722 425.143 754.419 407.2 768.403 398.823 z"/>
<path fill-rule="evenodd" transform="translate(0,0)" fill="#FFFFFF" d="M 693.5 1600.45 C 706.735 1599.29 723.51 1599.7 737.099 1599.74 C 738.619 1608.07 747.22 1628.59 750.783 1637.72 C 761.47 1665.22 772.391 1692.63 783.545 1719.95 C 796.038 1751.42 811.936 1799.19 826.175 1827.87 C 810.359 1829.25 792.495 1829.17 776.62 1829.03 C 769.312 1813.35 764.627 1803.26 759.519 1786.52 C 752.617 1786.11 743.052 1786.61 735.953 1786.78 C 713.431 1786.88 687.249 1786.46 665.012 1787.55 C 659.404 1800.75 654.914 1816.24 648.309 1828.73 C 635.229 1829.56 616.543 1829.11 603.034 1829.2 C 604.884 1815.71 610.916 1803.93 615.927 1791.36 L 637.429 1736.88 L 672.839 1646.45 C 678.159 1633.02 683.408 1619.32 688.913 1605.95 C 690.39 1602.37 690.698 1602.19 693.5 1600.45 z M 715.043 1664.4 C 715.722 1664.76 716.401 1665.12 717.08 1665.48 C 719.37 1672.47 721.487 1679.51 723.841 1686.48 C 728.912 1701.5 734.435 1716.37 739.849 1731.27 C 741.519 1735.86 743.345 1740.4 745.217 1744.91 C 734.491 1745.66 724.507 1745.77 713.772 1745.9 C 702.435 1745.85 692.871 1745.78 681.556 1744.89 C 687.056 1726.69 703.808 1677.89 715.043 1664.4 z"/>

<path transform="translate(0,0)" fill="#FFFFFF" d="M 326.912 1599.5 C 367.458 1598.69 412.152 1598.33 452.619 1599.68 L 452.735 1638.85 L 351.834 1639.98 C 350.924 1656.43 351.246 1674.73 351.562 1691.17 C 380.975 1691.29 410.387 1691.57 439.797 1691.99 C 439.475 1704.89 439.559 1717.8 440.049 1730.7 C 410.787 1731.42 380.54 1730.69 351.168 1730.49 L 350.915 1763.84 L 351.018 1788.82 C 385.84 1788.34 420.668 1788.37 455.489 1788.92 C 454.989 1802.13 454.725 1815.35 454.697 1828.57 C 429.018 1829.04 403.481 1828.23 377.839 1828.25 C 353.49 1828.26 329.361 1828.95 304.974 1828.65 C 304.896 1818.31 305.06 1807.83 305.171 1797.48 C 305.881 1731.63 303.801 1665.53 305.924 1599.71 L 326.912 1599.5 z"/>
<path transform="translate(0,0)" fill="#FFFFFF" d="M 1768.86 1598.6 C 1813.51 1600.18 1864 1599.26 1908.98 1599.3 L 1908.87 1638.8 C 1877.98 1639.78 1845.16 1639.21 1814.24 1638.98 C 1813.78 1656.36 1813.85 1673.74 1814.44 1691.11 C 1842.31 1691.43 1870.19 1691.49 1898.06 1691.3 L 1898.05 1730.81 C 1869.97 1730.75 1841.9 1730.89 1813.82 1731.23 L 1813.39 1754.25 C 1813.26 1765.7 1813.42 1777.16 1813.85 1788.6 C 1839.89 1787.86 1888.95 1786.93 1914.14 1788.8 C 1914.39 1802.15 1914.38 1815.51 1914.11 1828.86 C 1867.6 1830.33 1815.93 1828.8 1769.12 1828.37 C 1768.11 1751.78 1768.02 1675.19 1768.86 1598.6 z"/>
<path transform="translate(0,0)" fill="#FFFFFF" d="M 81.4607 1595.37 C 117.136 1592.02 133.394 1604.24 160.079 1622.97 C 152.192 1634.03 141.723 1646.07 132.921 1656.67 C 120.523 1640.08 86.239 1625.88 69.0143 1642.04 C 35.2155 1674.26 101.51 1691.12 123.388 1700.47 C 170.178 1720.48 181.821 1772.18 146.905 1809.55 C 129.518 1828.15 102.05 1832.03 76.7438 1831.75 C 40.2935 1827.77 30.6391 1820.46 4.8607 1796.06 C 13.005 1788.85 26.6479 1772.68 33.7776 1763.95 C 49.3364 1781.17 67.9215 1793.34 92.1165 1790.92 C 106.838 1789.45 124.216 1777.96 121.707 1761.56 C 117.81 1736.07 79.4946 1730.15 59.4613 1722.15 C 35.9567 1712.76 17.035 1696.86 14.0812 1670.3 C 11.967 1652.43 17.2183 1634.47 28.6266 1620.55 C 42.6091 1603.39 60.2797 1597.58 81.4607 1595.37 z"/>
<path transform="translate(0,0)" fill="#FFFFFF" d="M 1202.79 1599.4 C 1259.58 1600.8 1317.51 1598.14 1373.78 1599.31 L 1373.29 1639.93 C 1351.74 1640.97 1331.62 1640.04 1310.17 1640.3 C 1310.35 1681.86 1310.12 1723.42 1309.48 1764.97 C 1309.18 1785.94 1309.01 1806.91 1308.99 1827.87 C 1294.37 1828.87 1279.7 1829.05 1265.06 1828.39 C 1262.72 1770.1 1263.8 1699.23 1264.37 1640.49 C 1243.92 1639.87 1223.46 1639.8 1203 1640.28 C 1202.64 1626.66 1202.57 1613.03 1202.79 1599.4 z"/>
<path transform="translate(0,0)" fill="#FFFFFF" d="M 979.041 1599.5 C 1014.12 1599.11 1049.21 1599.03 1084.29 1599.25 C 1084.25 1612.63 1084.03 1626.57 1084.56 1639.89 C 1063.72 1640.55 1042.84 1639.88 1022.11 1640.83 C 1022.25 1674.27 1022.19 1707.72 1021.94 1741.16 C 1021.6 1769.51 1020.66 1799.72 1021.9 1828.01 C 1008.16 1829.35 992.059 1828.94 978.154 1828.87 C 977.026 1766.05 976.738 1703.22 977.289 1640.39 C 956.695 1639.91 936.093 1639.79 915.495 1640.05 C 914.893 1627.31 915.26 1612.44 915.623 1599.69 C 936.617 1599.85 958.016 1599.57 979.041 1599.5 z"/>
<path transform="translate(0,0)" fill="#FFFFFF" d="M 1506.18 1599.21 C 1518.79 1600.12 1536.9 1599.23 1550.97 1599.79 L 1550.88 1787.69 C 1582.45 1787.23 1614.03 1787.05 1645.61 1787.15 C 1645.9 1800.63 1645.47 1815.08 1645.29 1828.63 C 1602.47 1826.14 1549.48 1828.59 1505.72 1828.19 C 1506.73 1784.19 1505.93 1739.68 1506.06 1695.64 C 1506.16 1663.51 1507.65 1631.32 1506.18 1599.21 z"/>
<path fill-rule="evenodd" transform="translate(0,0)" fill="#FFFFFF" d="M 1560.26 1921.16 C 1577.3 1919.97 1588.62 1923.64 1598.85 1938.03 C 1618.6 1965.82 1596 1992.91 1575.87 2011.65 C 1563.11 2023.53 1549.99 2035.28 1535.53 2044.88 C 1526.96 2039.4 1522.11 2035.33 1514.42 2028.85 C 1502.42 2018.89 1492.29 2010.54 1480.56 1999 C 1451.91 1970.81 1462.67 1921.56 1507.3 1921.82 C 1517.71 1921.88 1526.69 1928.66 1533.58 1936.62 C 1542.09 1929.15 1549.57 1924.55 1560.26 1921.16 z M 1502.27 1942.18 C 1518.07 1940.31 1518.53 1947.36 1527.88 1957.16 C 1540.56 1970.48 1551.36 1940.31 1565.44 1942.04 C 1573.24 1943 1584.79 1952.24 1583.96 1960.8 C 1583 1974.87 1570.98 1985.83 1561.76 1995.03 C 1555.13 2001.48 1542.29 2014.2 1535.06 2018.87 C 1515.9 1999.08 1493.62 1988.2 1485.49 1961.32 C 1486.3 1959.33 1487.16 1957.36 1488.05 1955.42 C 1491.59 1947.78 1494.6 1944.95 1502.27 1942.18 z"/>

<path fill-rule="evenodd" transform="translate(0,0)" fill="#FFFFFF" d="M 1312.85 1924.22 C 1341.23 1924.21 1371.12 1920.13 1392.94 1939.75 C 1404.04 1949.68 1410.59 1963.71 1411.09 1978.59 C 1411.84 1998.74 1405.91 2010.38 1392.72 2024.64 C 1366.75 2045.51 1346.38 2040.56 1312.58 2041.04 C 1312.26 2021.53 1313.22 2000.99 1313.04 1981.23 C 1312.87 1962.8 1312.12 1942.41 1312.85 1924.22 z M 1336.46 1945.19 C 1368.15 1943.48 1390.65 1951.39 1386.17 1989.46 C 1385.12 1998.41 1383.35 2002.12 1377.5 2009.15 C 1363.89 2019.3 1352 2018.12 1335.93 2018.01 C 1335.67 1996.09 1334.76 1966.5 1336.46 1945.19 z"/>

<path transform="translate(0,0)" fill="#FFFFFF" d="M 387.235 1924.41 L 399.043 1925.03 C 399.84 1940.4 399.213 1957.72 399.118 1973.32 C 399.14 1995.87 398.912 2018.41 398.436 2040.95 C 390.955 2041.24 382.158 2040.74 374.581 2040.5 C 371.911 2034.83 369.479 2030.88 365.902 2025.76 C 351.831 2005.63 339.146 1984.65 325.479 1964.25 C 324.374 1986.43 325.474 2017.17 325.042 2040.74 L 311.129 2040.98 L 300.539 2041 C 300.895 2002.64 301.962 1964.14 301.48 1925.83 C 308.936 1925.43 314.892 1925.35 322.366 1925.48 C 332.317 1935.57 341.536 1951.43 349.841 1963.24 C 358.724 1975.87 367.504 1987.32 377.006 1999.52 C 376.241 1974.81 376.155 1950.08 376.747 1925.37 L 387.235 1924.41 z"/>
<path transform="translate(0,0)" fill="#FFFFFF" d="M 1712.93 1923.42 C 1725.85 1922.81 1736.4 1924.88 1747.94 1930.8 C 1766.09 1940.12 1764.89 1948.36 1747.12 1955.54 C 1741.81 1952.87 1734.67 1946.77 1729.86 1945.33 C 1706.48 1938.38 1685.23 1954.67 1682.78 1978.2 C 1680.82 1997.06 1690.92 2013.48 1708.66 2019.22 C 1717.12 2021.96 1729.38 2020.63 1737.17 2016.54 C 1744.61 2012.49 1745.92 2004.41 1747.61 1996.97 C 1731.87 1996.27 1716.35 2001.02 1720.43 1979.44 C 1722.91 1976.38 1722.33 1977.32 1727.06 1976.1 C 1741.02 1975.64 1755.82 1975.83 1769.85 1975.8 C 1769.72 1991.55 1771.6 2009.38 1761.65 2022.45 C 1743.49 2046.33 1705.15 2048.21 1682.06 2030.84 C 1669.74 2021.76 1661.63 2008.08 1659.56 1992.92 C 1654.58 1954.99 1675.19 1928.34 1712.93 1923.42 z"/>
<path transform="translate(0,0)" fill="#FFFFFF" d="M 1087.39 1924.49 C 1110.35 1923.91 1137.49 1924.64 1160.51 1925.38 C 1160.77 1931.64 1160.29 1938.13 1159.97 1944.4 C 1142.57 1944.95 1127.77 1944.82 1110.2 1946.22 C 1109.26 1955.5 1108.95 1960.49 1109.83 1969.69 C 1121.8 1970.78 1139.77 1970.71 1152.24 1971.08 C 1153.08 1980.02 1152.79 1984.73 1152.16 1993.73 C 1143.53 1993.36 1115.88 1991.52 1109.79 1994.59 L 1109.39 1996.77 L 1109.41 2018.74 C 1126.31 2018.83 1143.21 2018.72 1160.1 2018.41 C 1160.66 2025.58 1160.69 2033.35 1160.86 2040.58 C 1137.34 2041.16 1111.57 2040.57 1087.75 2040.72 L 1087.37 1977.01 C 1087.16 1960.75 1086.28 1940.42 1087.39 1924.49 z"/>
<path transform="translate(0,0)" fill="#FFFFFF" d="M 188.65 1924.5 L 235.851 1924.73 C 235.883 1931.26 235.714 1938.02 235.637 1944.56 C 221.514 1944.76 197.46 1944.93 184.183 1947.13 C 183.941 1956 184.071 1962.26 184.633 1971.12 C 195.814 1972.1 215.013 1970.93 227.282 1970.85 C 227.748 1978.24 227.459 1984.76 227.22 1992.16 C 213.19 1992.84 198.647 1992.22 184.039 1992.94 C 184.222 2001.57 184.528 2010.19 184.959 2018.81 C 201.671 2019.41 218.391 2019.76 235.113 2019.85 L 235.064 2040.05 C 210.911 2040.65 186.112 2040.62 161.922 2040.84 C 161.751 2001.68 162.705 1964.27 162.033 1924.72 L 188.65 1924.5 z"/>
<path transform="translate(0,0)" fill="#FFFFFF" d="M 1864.24 1923.27 C 1882.84 1921.79 1892.95 1924.84 1907.29 1936.8 C 1897.5 1958.95 1892.28 1951.88 1874.94 1942.87 C 1868.85 1939.7 1856.86 1950.89 1855.69 1956.02 C 1861.13 1968.12 1884.15 1971.52 1895.78 1979.3 C 1914.45 1991.79 1917.08 2007.67 1904.46 2026.37 C 1897.63 2036.5 1886.24 2040.43 1874.41 2042.2 C 1863.21 2042.6 1821.79 2036.99 1833.2 2016.3 C 1843.78 1997.09 1859.44 2025.44 1874.75 2020.17 C 1879.85 2018.42 1890.42 2015.54 1887.19 2004.71 C 1875.92 1988.22 1840 1989.58 1834.05 1966.24 C 1827.91 1942.16 1842.98 1928.67 1864.24 1923.27 z"/>
<path transform="translate(0,0)" fill="#FFFFFF" d="M 52.2272 1923.27 C 69.6925 1921.81 80.8761 1925.76 94.3807 1936.52 C 83.7731 1973.01 69.1916 1928.74 49.908 1947.6 C 35.7379 1961.45 57.2926 1969.5 68.2878 1972.99 C 98.2889 1982.52 108.982 2004.87 88.682 2031.03 C 81.2657 2040.37 67.867 2041.91 56.2953 2042.24 C 53.0854 2041.94 49.89 2041.5 46.7182 2040.93 C 39.2196 2039.5 24.9603 2034.7 21.1294 2027.95 C 15.3489 2017.75 27.39 2011.2 34.0987 2006.98 C 40.2863 2015.54 45.3688 2018.33 55.0084 2020.97 C 60.7977 2019.8 71.0003 2018.03 73.9506 2012.69 C 80.5558 2000.73 64.1677 1995.54 56.5431 1992.41 C 42.7706 1986.78 26.1903 1980.67 21.8982 1964.86 C 20.2122 1958.21 20.3773 1947.41 23.9984 1941.37 C 30.0832 1931.21 41.326 1925.92 52.2272 1923.27 z"/>
<path transform="translate(0,0)" fill="#FFFFFF" d="M 498.345 1923.21 C 517.641 1921.07 527.49 1926.65 541.887 1937.7 C 536.862 1946.2 535.59 1948.78 527.383 1954.21 C 505.864 1943.4 510.171 1932.61 486.753 1955.24 C 499.762 1973.44 515.847 1970.02 532.531 1982.14 C 552.896 1996.93 546.822 2026.14 526.099 2037.2 C 519.033 2040.97 515.444 2041.44 507.859 2042.49 C 494.84 2042.75 478.904 2039.54 469.034 2030.74 C 459.491 2022.23 469.182 2013.93 475.483 2008.53 C 484.439 2014.33 491.83 2020.17 502.965 2020.81 C 510.074 2021.22 525.113 2015.62 522.566 2007.07 C 516.751 1994.77 497.6 1991.16 486.542 1985.21 C 451.147 1966.15 463.789 1932.4 498.345 1923.21 z"/>
<path transform="translate(0,0)" fill="#FFFFFF" d="M 1002.25 1925.24 C 1011.79 1924.73 1017.32 1924.6 1026.81 1925.24 C 1024.05 1934.28 1019.41 1941.66 1016.5 1951.44 C 1005.83 1977.99 997.586 2005.51 987.221 2032.16 C 983.262 2042.34 969.991 2042.98 961.637 2038.82 C 959.376 2035.27 921.648 1931.59 920.297 1925.51 C 929.155 1925.03 934.611 1924.72 943.366 1925.41 C 952.274 1939.18 966.567 1987.97 974.37 2007.05 C 983.672 1977.6 991.046 1953.97 1002.25 1925.24 z"/>
<path transform="translate(0,0)" fill="#FFFFFF" d="M 691.64 1925.21 C 718.418 1924.98 750.346 1924.02 776.695 1925.31 C 776.904 1933.14 776.984 1936.44 775.842 1944.1 C 765.564 1944.09 756.374 1944.03 746.104 1944.81 C 745.747 1967.7 745.69 1990.6 745.933 2013.5 L 746.189 2040.78 L 721.182 2041.17 C 720.665 2010.95 722.118 1975.57 722.349 1944.83 C 712.918 1944.06 702.025 1944.73 692.459 1945.06 C 691.306 1937.76 691.214 1932.51 691.64 1925.21 z"/>
<path transform="translate(0,0)" fill="#FFFFFF" d="M 842.101 1924.43 C 848.314 1924.11 854.423 1924.93 860.62 1925.54 C 860.517 1938 860.777 2036.66 859.034 2040 L 855.734 2040.51 C 849.755 2040.78 843.527 2040.85 837.522 2041 C 836.576 2029.11 834.906 1929.12 837.582 1925.13 L 842.101 1924.43 z"/>
<path transform="translate(0,0)" fill="#FFFFFF" d="M 614.496 1924.45 C 621.405 1924.12 625.184 1924.42 632.112 1925.04 C 632.986 1934.16 632.739 2036.76 631.034 2040.02 L 627.813 2040.68 C 621.781 2040.75 615.472 2040.61 609.414 2040.56 C 608.683 2010.23 608.964 1979.86 608.391 1949.52 C 608.251 1942.06 607.986 1934.59 608.715 1927.15 C 610.627 1924.39 609.97 1925.28 614.496 1924.45 z"/>
</mask><rect x="0" y="0" width="1917" height="2048" fill="#000000" mask="url(#branda-cut-ri0pttvw)"/></svg>